<mxfile host="app.diagrams.net" modified="2024-06-08T14:21:35.964Z" agent="Mozilla/5.0 (Windows NT 10.0; Win64; x64) AppleWebKit/537.36 (KHTML, like Gecko) Chrome/125.0.0.0 Safari/537.36" version="24.5.2" etag="OYMC84QvZ5I1dGro51UO" type="github">
  <diagram name="Page-1" id="W2zh4eLAFVn3-qd_iiTs">
    <mxGraphModel>
      <root>
        <mxCell id="0" />
        <mxCell id="1" parent="0" />
      </root>
    </mxGraphModel>
  </diagram>
</mxfile>
